<?xml version="1.0" encoding="utf-8"?>
<!-- Generator: Adobe Illustrator 18.0.0, SVG Export Plug-In . SVG Version: 6.00 Build 0)  -->
<!DOCTYPE svg PUBLIC "-//W3C//DTD SVG 1.1//EN" "http://www.w3.org/Graphics/SVG/1.1/DTD/svg11.dtd">
<svg version="1.1" id="Layer_1" xmlns="http://www.w3.org/2000/svg" xmlns:xlink="http://www.w3.org/1999/xlink" x="0px" y="0px"
	 viewBox="0 0 129.5 129.5" enable-background="new 0 0 129.5 129.5" xml:space="preserve">
<g>
	<g>
		<g>
			<polygon fill="#E6E9EE" points="52.1,111.2 77.1,111.2 80.6,118.8 			"/>
		</g>
		<g>
			<rect x="13.7" y="26.7" fill="#84DBFF" width="101.8" height="63.3"/>
		</g>
		<path fill="#FFFFFF" d="M6.4,106.6v-9.3h116.3v9.3c0,2.5-2,4.5-4.5,4.5H11C8.4,111.2,6.4,109.1,6.4,106.6z"/>
		<path fill="#FFFFFF" d="M90.4,128.7c-0.4-3.8-3.7-6.8-7.6-6.8H46.4c-3.9,0-7.2,3-7.6,6.8H90.4z"/>
		<path fill="#231F20" d="M117.7,18.7H11.4c-3.2,0-5.8,2.6-5.8,5.8v82.1c0,2.9,2.4,5.3,5.3,5.3h40l-4.2,9.3h-0.3
			c-4.3,0-7.9,3.2-8.4,7.5l-0.1,0.8h53.4l-0.1-0.8c-0.5-4.3-4.1-7.5-8.4-7.5h-0.3l-4.2-9.3h40c2.9,0,5.3-2.4,5.3-5.3V24.5
			C123.5,21.3,120.9,18.7,117.7,18.7z M82.8,122.7c3.2,0,6,2.2,6.7,5.3H39.6c0.7-3.1,3.5-5.3,6.7-5.3H82.8z M80.8,121.2H48.3
			l4.2-9.3h24L80.8,121.2z M122,106.6c0,2.1-1.7,3.8-3.8,3.8H11c-2.1,0-3.8-1.7-3.8-3.8V98H122V106.6z M7.2,96.5v-72
			c0-2.4,1.9-4.3,4.3-4.3h106.3c2.4,0,4.3,1.9,4.3,4.3v72H7.2z"/>
		<g>
			<circle fill="#FFFFFF" cx="64.6" cy="104.2" r="3.4"/>
			<path fill="#231F20" d="M64.6,108.3c-2.3,0-4.1-1.8-4.1-4.1s1.9-4.1,4.1-4.1c2.3,0,4.1,1.8,4.1,4.1S66.9,108.3,64.6,108.3z
				 M64.6,101.6c-1.4,0-2.6,1.2-2.6,2.6s1.2,2.6,2.6,2.6c1.4,0,2.6-1.2,2.6-2.6S66,101.6,64.6,101.6z"/>
		</g>
		<g>
			<ellipse fill="#FFFFFF" cx="64.6" cy="63.3" rx="21.3" ry="21.2"/>
		</g>
		<path fill="#231F20" d="M101.5,31.9c-1.4,0-2.6,1-2.9,2.3h-31v-1.5c0-0.4-0.3-0.8-0.8-0.8h-4.4c-0.4,0-0.8,0.3-0.8,0.8v1.5h-31
			c-0.3-1.3-1.5-2.3-2.9-2.3c-1.6,0-3,1.3-3,3c0,1.6,1.3,3,3,3h0c1.3,0,2.5-0.9,2.8-2.1h24.6c-10.5,3.6-18.4,13.2-19.5,24.6H34
			c-0.4,0-0.8,0.3-0.8,0.8v4.4c0,0.4,0.3,0.8,0.8,0.8h4.4c0.4,0,0.8-0.3,0.8-0.8V61c0-0.4-0.3-0.8-0.8-0.8h-1.3
			c1.4-12.8,11.7-23.1,24.5-24.5v1.3c0,0.4,0.3,0.8,0.8,0.8h4.4c0.4,0,0.8-0.3,0.8-0.8v-1.3c12.8,1.4,23.2,11.7,24.5,24.5h-1.3
			c-0.4,0-0.8,0.3-0.8,0.8v4.4c0,0.4,0.3,0.8,0.8,0.8h4.4c0.4,0,0.8-0.3,0.8-0.8V61c0-0.4-0.3-0.8-0.8-0.8h-1.6
			c-1.2-11.4-9-20.9-19.5-24.6h24.6c0.4,1.2,1.5,2.1,2.8,2.1h0c1.6,0,3-1.3,3-3C104.4,33.2,103.1,31.9,101.5,31.9z M27.7,36.3
			L27.7,36.3c-0.8,0-1.5-0.7-1.5-1.5c0-0.8,0.7-1.5,1.5-1.5c0.8,0,1.5,0.7,1.5,1.5C29.2,35.7,28.5,36.3,27.7,36.3z M37.6,61.8v2.9
			h-2.9v-2.9H37.6z M66,36.3h-2.9v-2.9H66V36.3z M94.5,61.8v2.9h-2.9v-2.9H94.5z M101.5,36.3L101.5,36.3c-0.8,0-1.5-0.7-1.5-1.5
			c0-0.8,0.7-1.5,1.5-1.5c0.8,0,1.5,0.7,1.5,1.5C102.9,35.7,102.3,36.3,101.5,36.3z"/>
		<path fill="#FFFFFF" d="M64.6,47.5c-0.6,1.3-4.9,10.3-10.8,15l5.4,10.6h5.4H70l5.4-10.6C69.5,57.8,65.2,48.8,64.6,47.5z"/>
		<circle fill="#FFFFFF" cx="64.6" cy="64" r="2.6"/>
		<path fill="#FFFFFF" d="M70.5,73.1H58.6c-0.9,0-1.6,0.7-1.6,1.6v0.1c0,0.9,0.7,1.6,1.6,1.6h11.9c0.9,0,1.6-0.7,1.6-1.6v-0.1
			C72.1,73.8,71.4,73.1,70.5,73.1z"/>
		<path fill="#231F20" d="M75.9,61.9C70,57.3,65.7,48.2,65.3,47.2c-0.1-0.3-0.4-0.4-0.7-0.4c-0.3,0-0.6,0.2-0.7,0.4
			c-0.5,1-4.8,10.1-10.6,14.7c-0.3,0.2-0.4,0.6-0.2,0.9l4.9,9.7c-1,0.3-1.6,1.2-1.6,2.3c0,1.3,1,2.3,2.3,2.3h11.9
			c1.3,0,2.3-1,2.3-2.4c0-1-0.7-1.9-1.6-2.2l4.9-9.6C76.3,62.5,76.2,62.1,75.9,61.9z M64.6,62.2c1,0,1.8,0.8,1.8,1.8
			c0,1-0.8,1.8-1.8,1.8c-1,0-1.8-0.8-1.8-1.8C62.8,63,63.6,62.2,64.6,62.2z M70.5,75.6H58.6c-0.4,0-0.8-0.4-0.8-0.9
			c0-0.4,0.4-0.8,0.8-0.8h11.9c0.4,0,0.8,0.4,0.8,0.9C71.3,75.3,71,75.6,70.5,75.6z M69.6,72.4h-10l-4.9-9.7c4.1-3.4,7.3-8.7,9.1-12
			v10.1c-1.5,0.3-2.6,1.7-2.6,3.2c0,1.8,1.5,3.3,3.3,3.3c1.8,0,3.3-1.5,3.3-3.3c0-1.6-1.1-2.9-2.6-3.2V50.7c1.8,3.3,5,8.6,9.1,12
			L69.6,72.4z"/>
		<g>
			<path fill="#FFFFFF" stroke="#231F20" stroke-miterlimit="10" d="M32.8,93.1"/>
		</g>
		<g>
			<g>
				<path fill="#231F20" d="M121.8,4.1c-0.2,0-0.4-0.1-0.5-0.2c-0.3-0.3-0.3-0.8,0-1.1l1.3-1.3c0.3-0.3,0.8-0.3,1.1,0
					c0.3,0.3,0.3,0.8,0,1.1l-1.3,1.3C122.2,4,122,4.1,121.8,4.1z"/>
			</g>
			<g>
				<path fill="#231F20" d="M117.7,8.1c-0.2,0-0.4-0.1-0.5-0.2c-0.3-0.3-0.3-0.8,0-1.1l1.3-1.3c0.3-0.3,0.8-0.3,1.1,0
					c0.3,0.3,0.3,0.8,0,1.1l-1.3,1.3C118.1,8.1,117.9,8.1,117.7,8.1z"/>
			</g>
			<g>
				<path fill="#231F20" d="M123.1,8.1c-0.2,0-0.4-0.1-0.5-0.2l-1.3-1.3c-0.3-0.3-0.3-0.8,0-1.1c0.3-0.3,0.8-0.3,1.1,0l1.3,1.3
					c0.3,0.3,0.3,0.8,0,1.1C123.5,8.1,123.3,8.1,123.1,8.1z"/>
			</g>
			<g>
				<path fill="#231F20" d="M119,4.1c-0.2,0-0.4-0.1-0.5-0.2l-1.3-1.3c-0.3-0.3-0.3-0.8,0-1.1c0.3-0.3,0.8-0.3,1.1,0l1.3,1.3
					c0.3,0.3,0.3,0.8,0,1.1C119.4,4,119.2,4.1,119,4.1z"/>
			</g>
		</g>
		<g>
			<g>
				<path fill="#231F20" d="M116.9,120.9c-0.2,0-0.4-0.1-0.5-0.2c-0.3-0.3-0.3-0.8,0-1.1l1.3-1.3c0.3-0.3,0.8-0.3,1.1,0
					c0.3,0.3,0.3,0.8,0,1.1l-1.3,1.3C117.2,120.8,117.1,120.9,116.9,120.9z"/>
			</g>
			<g>
				<path fill="#231F20" d="M112.8,124.9c-0.2,0-0.4-0.1-0.5-0.2c-0.3-0.3-0.3-0.8,0-1.1l1.3-1.3c0.3-0.3,0.8-0.3,1.1,0
					c0.3,0.3,0.3,0.8,0,1.1l-1.3,1.3C113.2,124.9,113,124.9,112.8,124.9z"/>
			</g>
			<g>
				<path fill="#231F20" d="M118.2,124.9c-0.2,0-0.4-0.1-0.5-0.2l-1.3-1.3c-0.3-0.3-0.3-0.8,0-1.1c0.3-0.3,0.8-0.3,1.1,0l1.3,1.3
					c0.3,0.3,0.3,0.8,0,1.1C118.5,124.9,118.3,124.9,118.2,124.9z"/>
			</g>
			<g>
				<path fill="#231F20" d="M114.1,120.9c-0.2,0-0.4-0.1-0.5-0.2l-1.3-1.3c-0.3-0.3-0.3-0.8,0-1.1c0.3-0.3,0.8-0.3,1.1,0l1.3,1.3
					c0.3,0.3,0.3,0.8,0,1.1C114.5,120.8,114.3,120.9,114.1,120.9z"/>
			</g>
		</g>
		<g>
			<g>
				<path fill="#231F20" d="M10.5,11.2c-0.2,0-0.4-0.1-0.5-0.2c-0.3-0.3-0.3-0.8,0-1.1l1.3-1.3c0.3-0.3,0.8-0.3,1.1,0
					c0.3,0.3,0.3,0.8,0,1.1L11,11C10.9,11.2,10.7,11.2,10.5,11.2z"/>
			</g>
			<g>
				<path fill="#231F20" d="M6.4,15.3c-0.2,0-0.4-0.1-0.5-0.2c-0.3-0.3-0.3-0.8,0-1.1l1.3-1.3c0.3-0.3,0.8-0.3,1.1,0
					c0.3,0.3,0.3,0.8,0,1.1l-1.3,1.3C6.8,15.2,6.6,15.3,6.4,15.3z"/>
			</g>
			<g>
				<path fill="#231F20" d="M11.8,15.3c-0.2,0-0.4-0.1-0.5-0.2l-1.3-1.3c-0.3-0.3-0.3-0.8,0-1.1c0.3-0.3,0.8-0.3,1.1,0l1.3,1.3
					c0.3,0.3,0.3,0.8,0,1.1C12.1,15.2,12,15.3,11.8,15.3z"/>
			</g>
			<g>
				<path fill="#231F20" d="M7.7,11.2c-0.2,0-0.4-0.1-0.5-0.2L5.9,9.7c-0.3-0.3-0.3-0.8,0-1.1c0.3-0.3,0.8-0.3,1.1,0L8.2,10
					c0.3,0.3,0.3,0.8,0,1.1C8.1,11.2,7.9,11.2,7.7,11.2z"/>
			</g>
		</g>
		<g>
			<g>
				<path fill="#231F20" d="M70.5,7.5h-8.1c-0.4,0-0.8-0.3-0.8-0.8C61.6,6.3,62,6,62.4,6h8.1c0.4,0,0.8,0.3,0.8,0.8
					C71.3,7.1,70.9,7.5,70.5,7.5z"/>
			</g>
			<g>
				<path fill="#231F20" d="M73.7,10.4h-4c-0.4,0-0.8-0.3-0.8-0.8c0-0.4,0.3-0.8,0.8-0.8h4c0.4,0,0.8,0.3,0.8,0.8
					C74.5,10.1,74.1,10.4,73.7,10.4z"/>
			</g>
			<g>
				<path fill="#231F20" d="M78,7.5h-3.8c-0.4,0-0.8-0.3-0.8-0.8c0-0.4,0.3-0.8,0.8-0.8H78c0.4,0,0.8,0.3,0.8,0.8
					C78.8,7.1,78.4,7.5,78,7.5z"/>
			</g>
			<g>
				<path fill="#231F20" d="M66.8,10.4H66c-0.4,0-0.8-0.3-0.8-0.8c0-0.4,0.3-0.8,0.8-0.8h0.8c0.4,0,0.8,0.3,0.8,0.8
					C67.6,10.1,67.2,10.4,66.8,10.4z"/>
			</g>
		</g>
		<g>
			<g>
				<path fill="#231F20" d="M19.6,120.1h-8.1c-0.4,0-0.8-0.3-0.8-0.8c0-0.4,0.3-0.8,0.8-0.8h8.1c0.4,0,0.8,0.3,0.8,0.8
					C20.4,119.8,20,120.1,19.6,120.1z"/>
			</g>
			<g>
				<path fill="#231F20" d="M22.8,123.1h-4c-0.4,0-0.8-0.3-0.8-0.8c0-0.4,0.3-0.8,0.8-0.8h4c0.4,0,0.8,0.3,0.8,0.8
					C23.6,122.7,23.2,123.1,22.8,123.1z"/>
			</g>
			<g>
				<path fill="#231F20" d="M27.1,120.1h-3.8c-0.4,0-0.8-0.3-0.8-0.8c0-0.4,0.3-0.8,0.8-0.8h3.8c0.4,0,0.8,0.3,0.8,0.8
					C27.9,119.8,27.5,120.1,27.1,120.1z"/>
			</g>
			<g>
				<path fill="#231F20" d="M15.9,123.1h-0.8c-0.4,0-0.8-0.3-0.8-0.8c0-0.4,0.3-0.8,0.8-0.8h0.8c0.4,0,0.8,0.3,0.8,0.8
					C16.7,122.7,16.3,123.1,15.9,123.1z"/>
			</g>
		</g>
		<g>
			<circle fill="#84DBFF" cx="49.3" cy="2.2" r="2.2"/>
		</g>
		<g>
			<circle fill="#FF7058" cx="103.7" cy="13.2" r="2.2"/>
		</g>
		<g>
			<circle fill="#FFD05B" cx="22.2" cy="13.9" r="2.2"/>
		</g>
	</g>
</g>
</svg>
